<svg xmlns="http://www.w3.org/2000/svg" viewBox="0 0 1000 280" role="img" aria-labelledby="title desc">
  <title id="title">VPSmaxxing wordmark</title>
  <desc id="desc">A black VPSmaxxing wordmark with a cloud laptop mark and the tagline rent the cores.</desc>
  <g transform="translate(28 30) scale(0.43)" fill="none" stroke="#000" stroke-linecap="round" stroke-linejoin="round">
    <path
      stroke-width="28"
      d="M136 392C94 392 58 360 58 320C58 286 82 258 116 251C108 221 126 187 160 178C179 151 210 137 244 142C259 104 303 85 342 101C375 111 403 136 418 171C457 176 488 209 488 249C488 286 463 317 428 325C430 351 411 374 383 379C362 383 340 376 326 362C307 389 270 401 239 389C207 406 167 407 136 392Z"
    />

    <rect x="137" y="196" width="248" height="158" rx="18" stroke-width="24" />
    <path stroke-width="24" d="M118 356H404L370 404H152L118 356Z" />
    <path stroke-width="10" d="M232 382H290" />

    <g stroke-width="10">
      <rect x="166" y="228" width="112" height="72" rx="9" />
      <path d="M184 250H226" />
      <path d="M184 270H246" />

      <rect x="232" y="218" width="114" height="74" rx="9" />
      <path d="M250 240H294" />
      <path d="M250 260H316" />

      <rect x="196" y="260" width="130" height="76" rx="9" />
      <path d="M216 283H260" />
      <path d="M216 305H292" />
    </g>
  </g>

  <text
    x="290"
    y="126"
    fill="#000"
    font-family="Arial, Helvetica, sans-serif"
    font-size="88"
    font-weight="800"
    letter-spacing="0"
  >VPSmaxxing</text>
  <text
    x="294"
    y="178"
    fill="#000"
    font-family="Arial, Helvetica, sans-serif"
    font-size="32"
    font-weight="700"
    letter-spacing="0"
  >rent the cores</text>
</svg>
